<svg viewBox="0 0 50 50" fill="none" xmlns="http://www.w3.org/2000/svg">
<path d="M35.4167 4.16667H14.5834C8.83039 4.16667 4.16669 8.83037 4.16669 14.5833V35.4167C4.16669 41.1696 8.83039 45.8333 14.5834 45.8333H35.4167C41.1697 45.8333 45.8334 41.1696 45.8334 35.4167V14.5833C45.8334 8.83037 41.1697 4.16667 35.4167 4.16667Z" stroke="white" stroke-width="3" stroke-linecap="round" stroke-linejoin="round"/>
<path d="M33.3333 23.6875C33.5904 25.4213 33.2942 27.1921 32.4869 28.748C31.6796 30.3038 30.4023 31.5654 28.8366 32.3535C27.271 33.1415 25.4967 33.4158 23.7661 33.1374C22.0356 32.8589 20.4369 32.0418 19.1975 30.8024C17.9581 29.563 17.141 27.9643 16.8626 26.2338C16.5841 24.5032 16.8584 22.7289 17.6464 21.1633C18.4345 19.5976 19.6961 18.3203 21.252 17.513C22.8078 16.7057 24.5786 16.4096 26.3124 16.6667C28.081 16.9289 29.7184 17.7531 30.9826 19.0173C32.2469 20.2816 33.071 21.9189 33.3333 23.6875Z" stroke="white" stroke-width="3" stroke-linecap="round" stroke-linejoin="round"/>
<path d="M36.4583 13.5417H36.4805" stroke="white" stroke-width="3" stroke-linecap="round" stroke-linejoin="round"/>
</svg>
