<svg viewBox="0 0 50 50" fill="none" xmlns="http://www.w3.org/2000/svg">
<path d="M21.4375 8.04167L3.79165 37.5C3.42783 38.13 3.23533 38.8444 3.23329 39.5719C3.23126 40.2995 3.41975 41.0149 3.78004 41.6469C4.14032 42.279 4.65983 42.8057 5.28687 43.1747C5.91392 43.5437 6.62665 43.742 7.35415 43.75H42.6458C43.3733 43.742 44.086 43.5437 44.7131 43.1747C45.3401 42.8057 45.8596 42.279 46.2199 41.6469C46.5802 41.0149 46.7687 40.2995 46.7667 39.5719C46.7646 38.8444 46.5721 38.13 46.2083 37.5L28.5625 8.04167C28.1911 7.42939 27.6682 6.92317 27.0441 6.57184C26.4201 6.22052 25.7161 6.03595 25 6.03595C24.2839 6.03595 23.5798 6.22052 22.9558 6.57184C22.3318 6.92317 21.8089 7.42939 21.4375 8.04167V8.04167Z" stroke="white" stroke-width="3" stroke-linecap="round" stroke-linejoin="round"/>
<path d="M25 18.75V27.0833" stroke="white" stroke-width="3" stroke-linecap="round" stroke-linejoin="round"/>
<path d="M25 35.4167H25.0208" stroke="white" stroke-width="3" stroke-linecap="round" stroke-linejoin="round"/>
</svg>
