<svg viewBox="0 0 50 50" fill="none" xmlns="http://www.w3.org/2000/svg">
<path d="M39.6875 10.2292C37.7775 8.29985 35.5024 6.77015 32.9951 5.72928C30.4877 4.68841 27.7981 4.15722 25.0833 4.16667C13.7083 4.16667 4.43748 13.4375 4.43748 24.8125C4.43748 28.4583 5.39581 32 7.18748 35.125L4.27081 45.8333L15.2083 42.9583C18.2291 44.6042 21.625 45.4792 25.0833 45.4792C36.4583 45.4792 45.7291 36.2083 45.7291 24.8333C45.7291 19.3125 43.5833 14.125 39.6875 10.2292ZM25.0833 41.9792C22 41.9792 18.9791 41.1458 16.3333 39.5833L15.7083 39.2083L9.20831 40.9167L10.9375 34.5833L10.5208 33.9375C8.80778 31.202 7.89819 28.0401 7.89581 24.8125C7.89581 15.3542 15.6041 7.64584 25.0625 7.64584C29.6458 7.64584 33.9583 9.43751 37.1875 12.6875C38.7864 14.2791 40.0535 16.1722 40.9154 18.2571C41.7772 20.3421 42.2167 22.5773 42.2083 24.8333C42.25 34.2917 34.5416 41.9792 25.0833 41.9792ZM34.5 29.1458C33.9791 28.8958 31.4375 27.6458 30.9791 27.4583C30.5 27.2917 30.1666 27.2083 29.8125 27.7083C29.4583 28.2292 28.4791 29.3958 28.1875 29.7292C27.8958 30.0833 27.5833 30.125 27.0625 29.8542C26.5416 29.6042 24.875 29.0417 22.9166 27.2917C21.375 25.9167 20.3541 24.2292 20.0416 23.7083C19.75 23.1875 20 22.9167 20.2708 22.6458C20.5 22.4167 20.7916 22.0417 21.0416 21.75C21.2916 21.4583 21.3958 21.2292 21.5625 20.8958C21.7291 20.5417 21.6458 20.25 21.5208 20C21.3958 19.75 20.3541 17.2083 19.9375 16.1667C19.5208 15.1667 19.0833 15.2917 18.7708 15.2708H17.7708C17.4166 15.2708 16.875 15.3958 16.3958 15.9167C15.9375 16.4375 14.6041 17.6875 14.6041 20.2292C14.6041 22.7708 16.4583 25.2292 16.7083 25.5625C16.9583 25.9167 20.3541 31.125 25.5208 33.3542C26.75 33.8958 27.7083 34.2083 28.4583 34.4375C29.6875 34.8333 30.8125 34.7708 31.7083 34.6458C32.7083 34.5 34.7708 33.3958 35.1875 32.1875C35.625 30.9792 35.625 29.9583 35.4791 29.7292C35.3333 29.5 35.0208 29.3958 34.5 29.1458Z" fill="white"/>
</svg>
