<svg width="512" height="760" viewBox="0 0 512 760" fill="none" xmlns="http://www.w3.org/2000/svg">
<g id="BN-dark">
<g id="N">
<mask id="path-1-inside-1_778_1113" fill="white">
<path d="M40.1958 448.621V335.628C40.1958 322.554 39.8164 309.468 40.2937 296.418C41.4076 265.9 40.1224 235.369 40.9914 204.875C41.3668 185.725 46.2275 166.924 55.1894 149.957C66.6825 128.434 84.2465 113.09 106.082 102.201C122.899 93.8125 140.671 88.6776 159.068 85.2057C177.216 81.9285 195.528 79.6187 213.926 78.2863C236.361 76.4533 258.723 77.0724 281.122 77.2181C292.138 77.2909 303.08 79.1118 314.047 80.0101C325.874 81.1173 337.624 82.9212 349.236 85.4121C369.517 89.5273 389.211 95.5484 407.656 105.078C423.66 113.257 437.59 124.923 448.402 139.201C457.471 151.147 463.298 164.536 467.067 179.018C469.895 189.944 470.397 200.869 471.29 211.904C472.306 224.48 470.972 236.959 471.143 249.536C472.526 353.764 471.657 458.004 472 562.245C472 568.727 472 568.763 465.684 568.763C434.326 568.763 402.968 568.763 371.61 568.763C364.548 568.763 364.266 568.496 364.266 561.601C364.266 513.517 363.85 465.433 364.523 417.362C365.405 354.602 364.78 291.853 365.184 229.093C365.27 215.084 358.501 205.956 346.237 199.825C331.439 192.444 315.491 190.32 299.347 188.487C276.263 185.877 253.13 186.63 230.021 186.958C214.526 186.965 199.079 188.675 183.963 192.056C174.478 194.29 165.359 197.749 157.917 204.523C154.712 207.398 152.168 210.923 150.458 214.858C148.747 218.794 147.91 223.048 148.003 227.333C147.893 282.967 148.003 338.602 148.003 394.249C148.003 407.335 148.125 420.433 148.297 433.495C148.848 476.116 148.297 518.725 148.774 561.334C148.835 567.027 147.917 568.873 141.516 568.848C109.583 568.691 77.6371 568.763 45.7037 568.763C40.0612 568.763 40 568.763 40 562.961V448.621H40.1958Z"/>
</mask>
<path class="n-to-bn" d="M40.1958 448.621V335.628C40.1958 322.554 39.8164 309.468 40.2937 296.418C41.4076 265.9 40.1224 235.369 40.9914 204.875C41.3668 185.725 46.2275 166.924 55.1894 149.957C66.6825 128.434 84.2465 113.09 106.082 102.201C122.899 93.8125 140.671 88.6776 159.068 85.2057C177.216 81.9285 195.528 79.6187 213.926 78.2863C236.361 76.4533 258.723 77.0724 281.122 77.2181C292.138 77.2909 303.08 79.1118 314.047 80.0101C325.874 81.1173 337.624 82.9212 349.236 85.4121C369.517 89.5273 389.211 95.5484 407.656 105.078C423.66 113.257 437.59 124.923 448.402 139.201C457.471 151.147 463.298 164.536 467.067 179.018C469.895 189.944 470.397 200.869 471.29 211.904C472.306 224.48 470.972 236.959 471.143 249.536C472.526 353.764 471.657 458.004 472 562.245C472 568.727 472 568.763 465.684 568.763C434.326 568.763 402.968 568.763 371.61 568.763C364.548 568.763 364.266 568.496 364.266 561.601C364.266 513.517 363.85 465.433 364.523 417.362C365.405 354.602 364.78 291.853 365.184 229.093C365.27 215.084 358.501 205.956 346.237 199.825C331.439 192.444 315.491 190.32 299.347 188.487C276.263 185.877 253.13 186.63 230.021 186.958C214.526 186.965 199.079 188.675 183.963 192.056C174.478 194.29 165.359 197.749 157.917 204.523C154.712 207.398 152.168 210.923 150.458 214.858C148.747 218.794 147.91 223.048 148.003 227.333C147.893 282.967 148.003 338.602 148.003 394.249C148.003 407.335 148.125 420.433 148.297 433.495C148.848 476.116 148.297 518.725 148.774 561.334C148.835 567.027 147.917 568.873 141.516 568.848C109.583 568.691 77.6371 568.763 45.7037 568.763C40.0612 568.763 40 568.763 40 562.961V448.621H40.1958Z" stroke="#171717" stroke-width="4" mask="url(#path-1-inside-1_778_1113)"/>
</g>
<g id="B" class="b-to-bn" filter="url(#filter0_dddddd_778_1113)">
<path d="M208.805 396.384C208.805 340.883 208.805 285.386 208.805 229.893C208.805 226.324 209.919 225.183 213.48 225.207C236.65 225.316 259.808 225.207 282.965 225.292C293.822 225.292 300.908 231.192 302.549 242.396C303.718 249.454 303.556 256.665 302.071 263.664C301.378 266.67 300.018 269.483 298.089 271.901C296.16 274.318 293.711 276.278 290.921 277.637C288.142 279.093 287.249 279.822 290.701 281.558C299.464 286.001 302.94 293.527 302.94 302.971C302.94 383.86 302.94 464.748 302.94 545.636C302.94 560.204 294.715 568.568 280.089 568.701C257.935 568.883 235.781 568.701 213.639 568.859C208.744 568.859 208.817 566.31 208.817 562.886C208.817 507.385 208.817 451.888 208.817 396.396L208.805 396.384ZM248.682 418.234V539.36C248.682 540.502 248.682 541.655 248.682 542.784C248.498 545.151 249.538 546.061 251.913 546.231C260.101 546.79 263.173 543.973 263.173 535.646V390.52C263.173 360.989 263.173 331.45 263.173 301.903C263.173 299.354 263.332 296.793 261.79 294.462C259.881 291.597 255.487 290.286 250.909 291.439C247.237 292.374 248.816 295.409 248.816 297.509C248.718 337.738 248.669 377.968 248.669 418.198L248.682 418.234ZM248.682 257.995C248.682 260.265 248.682 262.535 248.682 264.805C248.574 265.364 248.641 265.942 248.873 266.463C249.105 266.983 249.49 267.421 249.979 267.719C254.447 270.147 261.668 267.075 262.806 262.05C263.213 259.963 263.308 257.828 263.088 255.713C262.623 249.753 259.71 247.871 252.17 248.162C246.148 248.393 249.575 252.909 248.718 255.446C248.572 256.288 248.555 257.148 248.669 257.995H248.682Z" fill="white"/>
</g>
</g>
<defs>
<filter id="filter0_dddddd_778_1113" x="0.804688" y="0.206589" width="510.516" height="759.652" filterUnits="userSpaceOnUse" color-interpolation-filters="sRGB">
<feFlood flood-opacity="0" result="BackgroundImageFix"/>
<feColorMatrix in="SourceAlpha" type="matrix" values="0 0 0 0 0 0 0 0 0 0 0 0 0 0 0 0 0 0 127 0" result="hardAlpha"/>
<feOffset dy="-0.470434"/>
<feGaussianBlur stdDeviation="2.87795"/>
<feColorMatrix type="matrix" values="0 0 0 0 1 0 0 0 0 1 0 0 0 0 1 0 0 0 0.0646635 0"/>
<feBlend mode="normal" in2="BackgroundImageFix" result="effect1_dropShadow_778_1113"/>
<feColorMatrix in="SourceAlpha" type="matrix" values="0 0 0 0 0 0 0 0 0 0 0 0 0 0 0 0 0 0 127 0" result="hardAlpha"/>
<feOffset dy="-1.13052"/>
<feGaussianBlur stdDeviation="6.91611"/>
<feColorMatrix type="matrix" values="0 0 0 0 1 0 0 0 0 1 0 0 0 0 1 0 0 0 0.0928953 0"/>
<feBlend mode="normal" in2="effect1_dropShadow_778_1113" result="effect2_dropShadow_778_1113"/>
<feColorMatrix in="SourceAlpha" type="matrix" values="0 0 0 0 0 0 0 0 0 0 0 0 0 0 0 0 0 0 127 0" result="hardAlpha"/>
<feOffset dy="-2.12866"/>
<feGaussianBlur stdDeviation="13.0224"/>
<feColorMatrix type="matrix" values="0 0 0 0 1 0 0 0 0 1 0 0 0 0 1 0 0 0 0.115 0"/>
<feBlend mode="normal" in2="effect2_dropShadow_778_1113" result="effect3_dropShadow_778_1113"/>
<feColorMatrix in="SourceAlpha" type="matrix" values="0 0 0 0 0 0 0 0 0 0 0 0 0 0 0 0 0 0 127 0" result="hardAlpha"/>
<feOffset dy="-3.79717"/>
<feGaussianBlur stdDeviation="23.2298"/>
<feColorMatrix type="matrix" values="0 0 0 0 1 0 0 0 0 1 0 0 0 0 1 0 0 0 0.137105 0"/>
<feBlend mode="normal" in2="effect3_dropShadow_778_1113" result="effect4_dropShadow_778_1113"/>
<feColorMatrix in="SourceAlpha" type="matrix" values="0 0 0 0 0 0 0 0 0 0 0 0 0 0 0 0 0 0 127 0" result="hardAlpha"/>
<feOffset dy="-7.10219"/>
<feGaussianBlur stdDeviation="43.4487"/>
<feColorMatrix type="matrix" values="0 0 0 0 1 0 0 0 0 1 0 0 0 0 1 0 0 0 0.165337 0"/>
<feBlend mode="normal" in2="effect4_dropShadow_778_1113" result="effect5_dropShadow_778_1113"/>
<feColorMatrix in="SourceAlpha" type="matrix" values="0 0 0 0 0 0 0 0 0 0 0 0 0 0 0 0 0 0 127 0" result="hardAlpha"/>
<feOffset dy="-17"/>
<feGaussianBlur stdDeviation="104"/>
<feColorMatrix type="matrix" values="0 0 0 0 1 0 0 0 0 1 0 0 0 0 1 0 0 0 0.23 0"/>
<feBlend mode="normal" in2="effect5_dropShadow_778_1113" result="effect6_dropShadow_778_1113"/>
<feBlend mode="normal" in="SourceGraphic" in2="effect6_dropShadow_778_1113" result="shape"/>
</filter>
</defs>
</svg>
