<svg viewBox="0 0 1250 1060" fill="none" xmlns="http://www.w3.org/2000/svg">
<g id="Group 511" opacity="0.15">
<g id="n">
<mask id="path-1-inside-1_407_24" fill="white">
<path d="M0.566637 1087.25L0.56658 756.667C0.566573 718.416 -0.530948 680.13 0.849729 641.95C4.07131 552.663 0.354094 463.34 2.86763 374.124C3.95331 318.096 18.0124 263.089 43.934 213.45C77.1766 150.48 127.979 105.588 191.136 73.7301C239.779 49.1885 291.182 34.1652 344.392 24.0077C396.884 14.4196 449.851 7.66182 503.064 3.76355C567.956 -1.59937 632.636 0.211913 697.422 0.638093C729.284 0.851184 760.933 6.17859 792.654 8.80676C826.863 12.0461 860.85 17.3236 894.435 24.6113C953.096 36.6512 1010.06 54.2672 1063.41 82.1472C1109.7 106.077 1149.99 140.208 1181.26 181.983C1207.5 216.93 1224.35 256.104 1235.25 298.475C1243.43 330.439 1244.88 362.404 1247.47 394.688C1250.4 431.482 1246.54 467.993 1247.04 504.787C1251.04 809.727 1248.53 1114.7 1249.52 1419.68C1249.52 1438.64 1249.52 1438.75 1231.25 1438.75C1140.55 1438.75 1049.85 1438.75 959.15 1438.75C938.723 1438.75 937.909 1437.97 937.909 1417.8C937.909 1277.12 936.705 1136.44 938.653 995.796C941.201 812.178 939.396 628.596 940.564 444.978C940.812 403.993 921.235 377.285 885.762 359.349C842.96 337.756 796.832 331.54 750.136 326.178C683.368 318.542 616.458 320.744 549.618 321.703C504.799 321.725 460.121 326.727 416.4 336.619C388.963 343.154 362.589 353.276 341.064 373.094C331.794 381.505 324.436 391.817 319.489 403.331C314.541 414.846 312.119 427.293 312.389 439.829C312.07 602.598 312.389 765.368 312.389 928.173C312.389 966.46 312.743 1004.78 313.238 1043C314.831 1167.69 313.238 1292.35 314.619 1417.02C314.796 1433.67 312.141 1439.07 293.626 1439C201.261 1438.54 108.862 1438.75 16.4977 1438.75C0.177274 1438.75 0.000251559 1438.75 0.000248591 1421.77L0.000190101 1087.25L0.566637 1087.25Z"/>
</mask>
<path class="n" d="M0.566637 1087.25L0.56658 756.667C0.566573 718.416 -0.530948 680.13 0.849729 641.95C4.07131 552.663 0.354094 463.34 2.86763 374.124C3.95331 318.096 18.0124 263.089 43.934 213.45C77.1766 150.48 127.979 105.588 191.136 73.7301C239.779 49.1885 291.182 34.1652 344.392 24.0077C396.884 14.4196 449.851 7.66182 503.064 3.76355C567.956 -1.59937 632.636 0.211913 697.422 0.638093C729.284 0.851184 760.933 6.17859 792.654 8.80676C826.863 12.0461 860.85 17.3236 894.435 24.6113C953.096 36.6512 1010.06 54.2672 1063.41 82.1472C1109.7 106.077 1149.99 140.208 1181.26 181.983C1207.5 216.93 1224.35 256.104 1235.25 298.475C1243.43 330.439 1244.88 362.404 1247.47 394.688C1250.4 431.482 1246.54 467.993 1247.04 504.787C1251.04 809.727 1248.53 1114.7 1249.52 1419.68C1249.52 1438.64 1249.52 1438.75 1231.25 1438.75C1140.55 1438.75 1049.85 1438.75 959.15 1438.75C938.723 1438.75 937.909 1437.97 937.909 1417.8C937.909 1277.12 936.705 1136.44 938.653 995.796C941.201 812.178 939.396 628.596 940.564 444.978C940.812 403.993 921.235 377.285 885.762 359.349C842.96 337.756 796.832 331.54 750.136 326.178C683.368 318.542 616.458 320.744 549.618 321.703C504.799 321.725 460.121 326.727 416.4 336.619C388.963 343.154 362.589 353.276 341.064 373.094C331.794 381.505 324.436 391.817 319.489 403.331C314.541 414.846 312.119 427.293 312.389 439.829C312.07 602.598 312.389 765.368 312.389 928.173C312.389 966.46 312.743 1004.78 313.238 1043C314.831 1167.69 313.238 1292.35 314.619 1417.02C314.796 1433.67 312.141 1439.07 293.626 1439C201.261 1438.54 108.862 1438.75 16.4977 1438.75C0.177274 1438.75 0.000251559 1438.75 0.000248591 1421.77L0.000190101 1087.25L0.566637 1087.25Z" stroke="white" stroke-width="2" mask="url(#path-1-inside-1_407_24)"/>
</g>
<g id="b" class="b">
<mask id="path-2-inside-2_407_24" fill="white">
<path d="M486.292 934.245C486.292 771.82 486.292 609.406 486.292 447.004C486.292 436.56 489.509 433.22 499.795 433.291C566.71 433.611 633.589 433.291 700.468 433.54C731.822 433.54 752.288 450.806 757.025 483.596C760.402 504.251 759.934 525.355 755.647 545.838C753.646 554.633 749.716 562.868 744.145 569.942C738.574 577.016 731.502 582.751 723.444 586.729C715.42 590.992 712.84 593.123 722.808 598.204C748.117 611.206 758.156 633.232 758.156 660.872C758.156 897.594 758.156 1134.32 758.156 1371.04C758.157 1413.67 734.402 1438.15 692.161 1438.54C628.18 1439.07 564.2 1438.54 500.255 1439C486.115 1439 486.328 1431.54 486.328 1421.52C486.328 1259.1 486.328 1096.68 486.327 934.281L486.292 934.245ZM601.457 998.192L601.457 1352.67C601.457 1356.01 601.457 1359.39 601.457 1362.69C600.927 1369.62 603.932 1372.28 610.789 1372.78C634.437 1374.41 643.31 1366.17 643.31 1341.8L643.309 917.086C643.309 830.663 643.309 744.216 643.309 657.745C643.309 650.285 643.769 642.789 639.315 635.968C633.801 627.584 621.111 623.747 607.89 627.122C597.286 629.857 601.846 638.739 601.846 644.885C601.563 762.618 601.422 880.352 601.422 998.086L601.457 998.192ZM601.457 529.247C601.457 535.891 601.457 542.534 601.457 549.178C601.147 550.813 601.34 552.504 602.009 554.027C602.678 555.55 603.793 556.832 605.204 557.704C618.106 564.809 638.962 555.821 642.249 541.113C643.423 535.005 643.697 528.757 643.062 522.568C641.719 505.125 633.306 499.619 611.531 500.471C594.14 501.146 604.037 514.362 601.563 521.787C601.139 524.252 601.092 526.768 601.422 529.247L601.457 529.247Z"/>
</mask>
<path class="b" d="M486.292 934.245C486.292 771.82 486.292 609.406 486.292 447.004C486.292 436.56 489.509 433.22 499.795 433.291C566.71 433.611 633.589 433.291 700.468 433.54C731.822 433.54 752.288 450.806 757.025 483.596C760.402 504.251 759.934 525.355 755.647 545.838C753.646 554.633 749.716 562.868 744.145 569.942C738.574 577.016 731.502 582.751 723.444 586.729C715.42 590.992 712.84 593.123 722.808 598.204C748.117 611.206 758.156 633.232 758.156 660.872C758.156 897.594 758.156 1134.32 758.156 1371.04C758.157 1413.67 734.402 1438.15 692.161 1438.54C628.18 1439.07 564.2 1438.54 500.255 1439C486.115 1439 486.328 1431.54 486.328 1421.52C486.328 1259.1 486.328 1096.68 486.327 934.281L486.292 934.245ZM601.457 998.192L601.457 1352.67C601.457 1356.01 601.457 1359.39 601.457 1362.69C600.927 1369.62 603.932 1372.28 610.789 1372.78C634.437 1374.41 643.31 1366.17 643.31 1341.8L643.309 917.086C643.309 830.663 643.309 744.216 643.309 657.745C643.309 650.285 643.769 642.789 639.315 635.968C633.801 627.584 621.111 623.747 607.89 627.122C597.286 629.857 601.846 638.739 601.846 644.885C601.563 762.618 601.422 880.352 601.422 998.086L601.457 998.192ZM601.457 529.247C601.457 535.891 601.457 542.534 601.457 549.178C601.147 550.813 601.34 552.504 602.009 554.027C602.678 555.55 603.793 556.832 605.204 557.704C618.106 564.809 638.962 555.821 642.249 541.113C643.423 535.005 643.697 528.757 643.062 522.568C641.719 505.125 633.306 499.619 611.531 500.471C594.14 501.146 604.037 514.362 601.563 521.787C601.139 524.252 601.092 526.768 601.422 529.247L601.457 529.247Z" stroke="#A40711" stroke-width="2" mask="url(#path-2-inside-2_407_24)"/>
</g>
</g>
</svg>
