<svg viewBox="0 0 47 54" fill="none" xmlns="http://www.w3.org/2000/svg">
<path d="M0.0213066 40.4309V28.1377C0.0213066 26.7153 -0.0199758 25.2916 0.0319579 23.8718C0.153137 20.5516 0.013316 17.23 0.107862 13.9123C0.1487 11.8289 0.677524 9.78335 1.65255 7.93744C2.90296 5.59581 4.81385 3.92643 7.18949 2.74175C9.01915 1.82914 10.9527 1.27048 12.9541 0.892753C14.9286 0.536206 16.9209 0.28491 18.9225 0.139947C21.3634 -0.0594804 23.7963 0.00787533 26.2332 0.0237239C27.4316 0.0316482 28.6221 0.229755 29.8153 0.327488C31.102 0.44795 32.3804 0.644201 33.6437 0.915205C35.8502 1.36293 37.9928 2.018 39.9996 3.05476C41.7408 3.94462 43.2564 5.21384 44.4326 6.76728C45.4193 8.06686 46.0532 9.52361 46.4633 11.0992C46.771 12.2879 46.8256 13.4765 46.9228 14.677C47.0333 16.0453 46.8881 17.403 46.9068 18.7712C47.0573 30.1109 46.9627 41.4518 47 52.7928C47 53.4981 47 53.502 46.3129 53.502C42.9012 53.502 39.4896 53.502 36.0779 53.502C35.3096 53.502 35.279 53.473 35.279 52.7228C35.279 47.4915 35.2337 42.2601 35.3069 37.0301C35.4028 30.202 35.3349 23.3752 35.3788 16.5472C35.3882 15.0231 34.6518 14.0299 33.3175 13.3629C31.7075 12.5599 29.9724 12.3288 28.216 12.1294C25.7045 11.8454 23.1877 11.9273 20.6736 11.963C18.9878 11.9638 17.3072 12.1498 15.6627 12.5177C14.6307 12.7607 13.6386 13.1371 12.829 13.874C12.4803 14.1868 12.2035 14.5703 12.0174 14.9985C11.8313 15.4266 11.7402 15.8895 11.7503 16.3557C11.7383 22.4085 11.7503 28.4613 11.7503 34.5155C11.7503 35.9392 11.7636 37.3642 11.7823 38.7853C11.8422 43.4223 11.7823 48.0581 11.8342 52.6938C11.8409 53.3132 11.741 53.5139 11.0446 53.5113C7.57034 53.4941 4.09477 53.502 0.620542 53.502C0.00665864 53.502 0 53.502 0 52.8707V40.4309H0.0213066Z" fill="url(#paint0_linear_407_52)"/>
<path d="M18.3658 34.7477C18.3658 28.7094 18.3658 22.6716 18.3658 16.6342C18.3658 16.2459 18.487 16.1217 18.8745 16.1244C21.3953 16.1363 23.9148 16.1244 26.4342 16.1336C27.6154 16.1336 28.3864 16.7755 28.5648 17.9945C28.692 18.7623 28.6744 19.5469 28.5129 20.3084C28.4375 20.6353 28.2895 20.9415 28.0796 21.2045C27.8697 21.4675 27.6033 21.6807 27.2998 21.8285C26.9975 21.987 26.9003 22.0663 27.2758 22.2551C28.2293 22.7385 28.6074 23.5573 28.6074 24.5849C28.6074 33.3852 28.6074 42.1856 28.6074 50.9859C28.6074 52.5708 27.7126 53.4807 26.1213 53.4953C23.711 53.5151 21.3008 53.4953 18.8918 53.5124C18.3592 53.5124 18.3672 53.2351 18.3672 52.8626C18.3672 46.8243 18.3672 40.7865 18.3672 34.7491L18.3658 34.7477ZM22.7043 37.125V50.3031C22.7043 50.4272 22.7043 50.5527 22.7043 50.6755C22.6843 50.9331 22.7975 51.0321 23.0559 51.0506C23.9467 51.1114 24.281 50.805 24.281 49.899V34.1098C24.281 30.897 24.281 27.6832 24.281 24.4686C24.281 24.1913 24.2983 23.9126 24.1305 23.659C23.9227 23.3473 23.4447 23.2047 22.9467 23.3302C22.5472 23.4319 22.719 23.7621 22.719 23.9905C22.7083 28.3674 22.703 32.7442 22.703 37.1211L22.7043 37.125ZM22.7043 19.6916C22.7043 19.9386 22.7043 20.1856 22.7043 20.4325C22.6926 20.4933 22.6999 20.5562 22.7251 20.6128C22.7503 20.6694 22.7923 20.7171 22.8455 20.7495C23.3315 21.0136 24.1172 20.6795 24.241 20.1327C24.2852 19.9057 24.2956 19.6734 24.2716 19.4433C24.221 18.7949 23.9041 18.5901 23.0838 18.6218C22.4287 18.6469 22.8015 19.1382 22.7083 19.4143C22.6923 19.5059 22.6906 19.5994 22.703 19.6916H22.7043Z" fill="#F2F2F2"/>
<defs>
<linearGradient id="paint0_linear_407_52" x1="23.502" y1="-0.00533154" x2="23.502" y2="53.5034" gradientUnits="userSpaceOnUse">
<stop offset="0.01" stop-color="#320B0C"/>
<stop offset="1" stop-color="#A40711"/>
</linearGradient>
</defs>
</svg>
