<svg width="2005" height="686" viewBox="0 0 2005 686" fill="none" stroke-width="2" stroke="#303030" xmlns="http://www.w3.org/2000/svg">
<path d="M0.208984 0.592285H167.265C241.088 0.592285 278 39.7312 278 118.009V321.34C278 398.981 241.406 437.802 168.22 437.802H91.8512V686H0.208984V0.592285ZM91.8512 354.751H150.082C174.266 354.751 186.357 341.387 186.357 314.658V123.737C186.357 97.0076 172.675 83.6431 145.309 83.6431H91.8512V354.751Z"/>
<path d="M568.379 686H350.729V0.592285H442.371V602.949H568.379V686Z"/>
<path d="M707.945 686H616.303V118.009C616.303 39.7312 652.896 0.592285 726.083 0.592285H794.815C868.001 0.592285 904.594 39.7312 904.594 118.009V686H812.952V434.938H707.945V686ZM812.952 351.888V123.737C812.952 97.0076 799.588 83.6431 772.859 83.6431H748.039C721.31 83.6431 707.945 97.0076 707.945 123.737V351.888H812.952Z"/>
<path d="M1175.55 331.841V0.592285H1267.19V686H1175.55V549.491L1077.22 237.335V686H985.579V0.592285H1077.22L1175.55 331.841Z"/>
<path d="M1458.84 686C1385.02 686 1348.11 647.179 1348.11 569.538V118.009C1348.11 39.7312 1384.7 0.592285 1457.89 0.592285H1545.71C1618.9 0.592285 1655.49 39.7312 1655.49 118.009V569.538C1655.49 647.179 1618.58 686 1544.76 686H1458.84ZM1480.8 602.949H1527.57C1551.76 602.949 1563.85 589.585 1563.85 562.856V123.737C1563.85 97.0076 1550.16 83.6431 1522.8 83.6431H1479.84C1453.11 83.6431 1439.75 97.0076 1439.75 123.737V562.856C1439.75 589.585 1453.43 602.949 1480.8 602.949Z"/>
<path d="M1912.61 184.831V124.691C1912.61 97.3258 1899.24 83.6431 1872.51 83.6431H1858.19C1832.1 83.6431 1819.06 97.3258 1819.06 124.691V238.289C1819.06 251.017 1821.6 259.609 1826.69 264.064C1831.78 268.519 1840.06 274.246 1851.51 281.247L1938.38 328.022C1957.47 338.841 1970.84 347.433 1978.47 353.797C1986.75 359.524 1993.11 366.843 1997.57 375.753C2002.02 384.026 2004.25 400.254 2004.25 424.438V570.492C2004.25 647.497 1967.34 686 1893.51 686H1837.19C1764.01 686 1727.41 643.997 1727.41 559.992V525.626H1819.06V562.856C1819.06 589.585 1832.74 602.949 1860.1 602.949H1876.33C1900.52 602.949 1912.61 589.585 1912.61 562.856V446.394C1912.61 433.666 1910.06 425.074 1904.97 420.619C1899.88 416.164 1891.61 410.437 1880.15 403.436L1793.28 354.751C1774.19 344.569 1760.19 335.977 1751.28 328.977C1743.01 321.977 1736.96 313.067 1733.14 302.248C1729.32 290.793 1727.41 276.155 1727.41 258.336V118.009C1727.41 39.7312 1764.01 0.592285 1837.19 0.592285H1894.47C1967.66 0.592285 2004.25 39.7312 2004.25 118.009V184.831H1912.61Z"/>
</svg>
