<svg viewBox="0 0 755 734" fill="none" xmlns="http://www.w3.org/2000/svg">
<path d="M244.364 733.092L424.688 733.092L178.639 367.389L424.688 -6.10352e-05L244.364 -4.52708e-05L0.000273205 367.389L244.364 733.092Z" fill="#0B0B0B"/>
<path d="M574.676 733.092L755 733.092L508.951 367.389L755 -6.10352e-05L574.676 -4.52708e-05L330.312 367.389L574.676 733.092Z" fill="#0B0B0B"/>
<path d="M244.364 733.092L424.688 733.092L178.639 367.389L424.688 -6.10352e-05L244.364 -4.52708e-05L0.000273205 367.389L244.364 733.092Z" fill="#0B0B0B"/>
<path d="M574.676 733.092L755 733.092L508.951 367.389L755 -6.10352e-05L574.676 -4.52708e-05L330.312 367.389L574.676 733.092Z" fill="#0B0B0B"/>
</svg>
